<svg width="24" height="24" viewBox="0 0 24 24" fill="none" xmlns="http://www.w3.org/2000/svg">
<rect x="3.75" y="4.88721" width="16.5" height="4.06452" rx="1.80645" fill="white" stroke="#4A4A4A" stroke-linecap="round" stroke-linejoin="round"/>
<path d="M18.875 17.9839V8.95166H5.125V17.9839C5.125 20.4781 7.14694 22.5 9.64113 22.5H14.3589C16.8531 22.5 18.875 20.4781 18.875 17.9839Z" fill="white" stroke="#4A4A4A" stroke-linecap="round" stroke-linejoin="round"/>
<path d="M14.0625 10.9839V19.1129" stroke="#4A4A4A" stroke-linecap="round" stroke-linejoin="round"/>
<path d="M9.9375 10.9839V19.1129" stroke="#4A4A4A" stroke-linecap="round" stroke-linejoin="round"/>
<path d="M12 1.5C10.1015 1.5 8.5625 3.01645 8.5625 4.8871H15.4375C15.4375 3.01645 13.8985 1.5 12 1.5Z" fill="white"/>
<path d="M8.5625 4.8871C8.5625 3.01645 10.1015 1.5 12 1.5C13.8985 1.5 15.4375 3.01645 15.4375 4.8871H8.21875" stroke="#4A4A4A" stroke-linecap="round" stroke-linejoin="round"/>
</svg>
