<svg width="160" height="160" viewBox="0 0 160 160" fill="none" xmlns="http://www.w3.org/2000/svg">
<g clip-path="url(#clip0_2209_19211)">
<path d="M90.5035 22.7423C90.5235 23.2864 90.6627 23.8194 90.911 24.3038C91.1594 24.7883 91.511 25.2124 91.941 25.5463C92.371 25.8802 92.8689 26.1158 93.3998 26.2364C93.9307 26.357 94.4816 26.3597 95.0136 26.2444L101.902 37.5441L104.833 31.3234L97.8428 21.5467C97.5898 20.6657 97.0224 19.9081 96.2482 19.4175C95.474 18.9269 94.5467 18.7373 93.6421 18.8847C92.7374 19.032 91.9183 19.5061 91.3398 20.2171C90.7613 20.9281 90.4638 21.8266 90.5035 22.7423H90.5035Z" fill="#FFB6B6"/>
<path d="M142.193 55.1256L118.456 42.2501L110.969 35.2256C110.969 35.2256 107.714 34.3541 108.912 33.2958C110.11 32.2374 106.696 31.2168 106.696 31.2168L102.676 27.4458L96.9651 31.4869L98.618 34.0492C98.618 34.0492 98.5042 38.2909 100.828 37.4749C103.152 36.6588 102.571 40.1767 102.571 40.1767L116.441 61.6764L142.193 55.1256Z" fill="#3F3D56"/>
<path d="M137.151 83.3745H112.819V111.076H137.151V83.3745Z" fill="#FFB6B6"/>
<path d="M113.38 97.0371L109.263 101.904L102.15 116.877L84.2284 159.519L80.4382 168.537L83.4991 184.479C83.4991 184.479 83.9945 195.71 83.9945 197.548C83.9945 201.292 87.1255 203.366 87.1255 203.366L89.4224 215.33L111.696 214.394C111.696 214.394 110.919 201.206 106.254 197.88C101.589 194.554 99.4442 177.217 99.4442 177.217L96.9093 169.526L121.616 140.238L121.775 150.476L121.853 155.431C121.853 155.431 118.235 187.659 122.452 193.914C126.67 200.169 122.538 199.433 122.538 199.433L122.739 212.335L149.13 212.522L143.308 175.377C143.308 175.377 140.351 173.042 141.933 170.696C143.515 168.349 140.4 165.476 140.4 165.476L141.797 136.477C141.797 136.477 140.25 131.469 142.07 130.818C143.889 130.166 142.309 125.859 142.309 125.859L142.579 120.246L137.151 102.839L113.38 97.0371Z" fill="#2F2E41"/>
<path d="M137.525 83.374L140.146 75.5128L142.018 72.8924L142.766 65.4056C142.766 45.191 138.257 48.5572 138.257 48.5572L135.654 41.4476L123.675 41.0732L116.001 48.3729L109.637 50.619L107.145 63.5676L111.696 77.3845L112.819 84.8714C110.677 88.8262 110.858 86.9556 112.632 89.925L133.782 95.7273C141.269 98.3477 141.269 91.6096 139.768 89.925C138.266 88.2405 137.525 83.374 137.525 83.374Z" fill="#3F3D56"/>
<path d="M128.117 38.5605C134.25 38.5605 139.222 33.5886 139.222 27.4555C139.222 21.3224 134.25 16.3506 128.117 16.3506C121.984 16.3506 117.012 21.3224 117.012 27.4555C117.012 33.5886 121.984 38.5605 128.117 38.5605Z" fill="#FFB6B6"/>
<path d="M142.942 42.2787C143.047 42.4552 143.11 42.6531 143.128 42.8576C143.145 43.062 143.116 43.2678 143.043 43.4596C142.97 43.6514 142.855 43.8242 142.706 43.9652C142.557 44.1062 142.378 44.2117 142.182 44.2739C140.692 44.7681 139.775 46.2093 138.705 47.3623C137.638 48.5115 135.919 49.4661 134.557 48.6837C133.198 47.9051 133.104 45.9173 131.966 44.8392C130.858 43.7911 129.017 43.9183 127.714 44.7157L127.675 44.7396C127.45 44.8862 127.187 44.9637 126.919 44.9625C126.65 44.9613 126.388 44.8814 126.165 44.7328C125.941 44.5841 125.766 44.3732 125.661 44.1261C125.556 43.8791 125.526 43.6067 125.574 43.3426C126.031 40.9151 126.487 38.4878 126.943 36.0609C125.745 38.9472 124.005 41.5775 121.818 43.8098C121.216 44.505 120.452 45.0422 119.594 45.3745C118.816 45.6216 118.06 44.8167 117.303 44.9627C119.183 43.3194 125.502 32.7853 124.371 25.7439C123.042 25.8937 121.713 26.0434 120.384 26.1932C120.24 25.5642 119.933 24.9844 119.493 24.5124C119.547 25.1245 119.469 25.7409 119.265 26.3204C118.711 26.3841 118.153 26.444 117.599 26.5076C116.828 26.5937 115.989 26.6686 115.327 26.2643C114.223 25.5905 114.189 23.9958 114.503 22.738C115.424 19.0806 118.217 16.0222 121.635 14.4201C125.052 12.8216 126.063 16.3816 129.664 15.2436C136.777 12.9976 142.227 16.8384 144.148 23.9658C145.761 29.9441 144.589 36.2892 142.942 42.2787Z" fill="#2F2E41"/>
<rect x="14" y="18.8892" width="64.7388" height="93.4206" rx="3.27791" fill="#D9D9D9"/>
<rect x="18.9169" y="23.8057" width="54.9051" height="81.9479" rx="3.27791" fill="white"/>
<rect x="48.8279" y="30.3618" width="18.4383" height="24.5844" rx="0.819479" fill="#E6E6E6"/>
<rect x="48.8279" y="67.2378" width="18.4383" height="24.5844" rx="0.819479" fill="#E6E6E6"/>
<rect x="25.4728" y="30.3618" width="18.4383" height="24.5844" rx="0.819479" fill="#E6E6E6"/>
<rect x="25.4728" y="67.2378" width="18.4383" height="24.5844" rx="0.819479" fill="#E6E6E6"/>
<rect x="25.4728" y="57.4043" width="18.4383" height="1.63896" rx="0.409739" fill="#E6E6E6"/>
<rect x="25.4728" y="94.2803" width="18.4383" height="1.63896" rx="0.409739" fill="#E6E6E6"/>
<rect x="48.8279" y="57.4043" width="18.4383" height="1.63896" rx="0.409739" fill="#E6E6E6"/>
<rect x="48.8279" y="94.2803" width="18.4383" height="1.63896" rx="0.409739" fill="#E6E6E6"/>
<rect x="25.4728" y="60.6816" width="9.21913" height="1.63896" rx="0.409739" fill="#E6E6E6"/>
<rect x="25.4728" y="97.5586" width="9.21913" height="1.63896" rx="0.409739" fill="#E6E6E6"/>
<rect x="48.8279" y="60.6816" width="9.21913" height="1.63896" rx="0.409739" fill="#E6E6E6"/>
<rect x="48.8279" y="97.5586" width="9.21913" height="1.63896" rx="0.409739" fill="#E6E6E6"/>
<path d="M65.179 41.4999C65.7176 41.579 66.2324 41.7752 66.6869 42.0748C67.1415 42.3744 67.5249 42.77 67.81 43.2337C68.0952 43.6975 68.2752 44.2181 68.3374 44.759C68.3995 45.2998 68.3424 45.8477 68.1699 46.3641L78.6537 54.4398L72.1511 56.6776L63.1924 48.6656C62.3442 48.3184 61.6528 47.672 61.2492 46.849C60.8457 46.0261 60.758 45.0837 61.0029 44.2004C61.2478 43.3171 61.8081 42.5544 62.5778 42.0567C63.3475 41.5589 64.273 41.3608 65.179 41.4999L65.179 41.4999Z" fill="#FFB6B6"/>
<path d="M119.76 45.4927L92.918 61.9961C92.918 61.9961 82.0957 57.9918 84.2107 56.1381C86.3258 54.2844 79.5927 53.0312 79.5927 53.0312L72.1546 48.027L67.8384 53.0432C67.8384 53.0432 68.6248 61.1909 69.963 59.7801C71.3011 58.3693 73.3013 62.2233 73.3013 62.2233C73.3013 62.2233 73.8923 66.5265 77.7015 65.4436C81.5107 64.3607 91.7319 75.7119 91.7319 75.7119L124.766 63.3914L119.76 45.4927Z" fill="#3F3D56"/>
<rect x="63.1687" y="15.2017" width="29.5709" height="29.5709" rx="4.18074" fill="#DA1C5C"/>
<path fill-rule="evenodd" clip-rule="evenodd" d="M78.0626 36.9539C78.0626 36.9539 85.4932 31.4661 85.4932 27.4188C85.4932 22.7542 79.4136 21.245 78.0626 26.9386C76.7115 21.245 70.632 22.6856 70.632 27.4188C70.632 31.4661 78.0626 36.9539 78.0626 36.9539Z" fill="white"/>
<path fill-rule="evenodd" clip-rule="evenodd" d="M78.0627 25.9539C77.6886 24.9573 77.146 24.218 76.5072 23.7207C75.6846 23.0803 74.7198 22.8551 73.8004 22.9858C71.9601 23.2475 70.3462 24.9211 70.3462 27.4189C70.3462 28.5118 70.8447 29.6696 71.5526 30.7708C72.2641 31.8775 73.2079 32.9588 74.1441 33.9052C75.0814 34.8527 76.0177 35.6716 76.7191 36.2533C77.07 36.5443 77.3627 36.7764 77.5679 36.9359C77.6705 37.0157 77.7513 37.0774 77.8067 37.1193C77.8344 37.1403 77.8557 37.1563 77.8702 37.1671L77.8868 37.1795L77.8911 37.1827L77.8923 37.1836C77.8924 37.1836 77.8928 37.1839 78.0626 36.954L77.8928 37.1839C77.9937 37.2585 78.1315 37.2585 78.2324 37.1839L78.0626 36.954C78.2324 37.1839 78.2323 37.184 78.2324 37.1839L78.2341 37.1827L78.2384 37.1795L78.255 37.1671C78.2695 37.1563 78.2908 37.1403 78.3185 37.1193C78.3738 37.0774 78.4547 37.0157 78.5573 36.9359C78.7625 36.7764 79.0552 36.5443 79.4061 36.2533C80.1075 35.6716 81.0437 34.8527 81.9811 33.9052C82.9173 32.9588 83.8611 31.8775 84.5726 30.7708C85.2805 29.6696 85.779 28.5118 85.779 27.4189C85.779 24.9535 84.1636 23.2823 82.3262 23.0118C81.4075 22.8765 80.4423 23.0944 79.619 23.7296C78.9797 24.2228 78.4369 24.9587 78.0627 25.9539ZM78.0626 36.5957C78.0214 36.5642 77.9733 36.5271 77.9187 36.4847C77.7176 36.3283 77.4297 36.1 77.084 35.8133C76.3922 35.2396 75.4708 34.4336 74.5505 33.5032C73.629 32.5718 72.7152 31.5222 72.0334 30.4617C71.3481 29.3956 70.9178 28.3498 70.9178 27.4189C70.9178 25.1835 72.3437 23.7703 73.8809 23.5517C74.6503 23.4423 75.4587 23.6288 76.156 24.1717C76.8543 24.7154 77.4585 25.6306 77.7845 27.0047C77.8151 27.1336 77.9302 27.2246 78.0626 27.2246C78.195 27.2246 78.3101 27.1336 78.3407 27.0047C78.6667 25.6308 79.2706 24.7203 79.9682 24.1821C80.6648 23.6447 81.4728 23.4639 82.2429 23.5773C83.783 23.804 85.2074 25.2197 85.2074 27.4189C85.2074 28.3498 84.7771 29.3956 84.0918 30.4617C83.41 31.5222 82.4962 32.5718 81.5747 33.5032C80.6544 34.4336 79.733 35.2396 79.0412 35.8133C78.6955 36.1 78.4076 36.3283 78.2065 36.4847C78.1519 36.5271 78.1038 36.5642 78.0626 36.5957Z" fill="white"/>
</g>
<defs>
<clipPath id="clip0_2209_19211">
<rect width="160" height="160" fill="white"/>
</clipPath>
</defs>
</svg>
