<?xml version="1.0" encoding="UTF-8" standalone="no"?>
<svg width="50px" height="50px" viewBox="0 0 50 50" version="1.1" xmlns="http://www.w3.org/2000/svg" xmlns:xlink="http://www.w3.org/1999/xlink">
    <!-- Generator: Sketch 47.1 (45422) - http://www.bohemiancoding.com/sketch -->
    <title>ic_click_and_collect</title>
    <desc>Created with Sketch.</desc>
    <defs>
        <rect id="path-1" x="0.981584821" y="3.60888672" width="50.0368304" height="43.7822266"></rect>
    </defs>
    <g id="Symbols" stroke="none" stroke-width="1" fill="none" fill-rule="evenodd">
        <g id="ic_click_and_collect">
            <g id="ic-click_collect" transform="translate(-1.000000, 0.000000)">
                <g id="Combined-Shape-Clipped">
                    <rect id="Rectangle-2" x="1" y="0" width="50" height="50"></rect>
                    <mask id="mask-2" fill="white">
                        <use xlink:href="#path-1"></use>
                    </mask>
                    <g id="path-1"></g>
                    <path d="M30.2381109,42.1372829 L8.22054073,42.1372829 C7.66802433,42.1372829 7.22012131,41.6911324 7.22012131,41.1610222 L7.22012131,20.3872828 L4.22179358,20.3872828 C3.66858525,20.3872828 3.2201213,19.9620558 3.2201213,19.4174731 L3.2201213,13.4480018 C3.2201213,12.9123906 3.54270737,12.1592716 3.9319617,11.7744407 L8.50828091,7.25012505 C8.90141949,6.86145396 9.67248338,6.54637377 10.2129077,6.54637377 L40.2273349,6.54637377 C40.7756357,6.54637377 41.5427074,6.86529408 41.9319617,7.25012505 L46.5082809,11.7744407 C46.9014195,12.1631118 47.2201213,12.903419 47.2201213,13.4480018 L47.2201213,19.4174731 C47.2201213,19.9530842 46.7846378,20.3872828 46.218449,20.3872828 L43.2201213,20.3872828 L43.2201213,25.9704939 C43.2201213,26.2094375 43.0762862,26.2679879 42.9076213,26.1095055 L41.4046916,24.6973096 C41.3027563,24.6015282 41.2201213,24.413238 41.2201213,24.2775069 L41.2201213,20.3872828 L9.22012129,20.3872828 L9.22012129,40.1600102 L19.2201213,40.1600102 L19.2201213,32.2542123 C19.2201213,28.9763409 21.9131555,26.319101 25.2201213,26.319101 C28.5338298,26.319101 31.2201213,28.9667091 31.2201213,32.2542123 L31.2201213,41.1477847 C31.2201213,41.6942695 30.7643604,42.1372829 30.2381109,42.1372829 Z M5.22012133,14.4554647 L5.22012133,18.4100101 L45.2201213,18.4100101 L45.2201213,14.4554647 L5.22012133,14.4554647 Z M6.0485484,12.478192 L44.3916942,12.478192 L40.5177481,8.64826803 C40.5003797,8.63109701 40.2406823,8.52364648 40.2273349,8.52364648 L10.2129077,8.52364648 C10.2014599,8.52364648 9.93950657,8.63144928 9.9224945,8.64826803 L6.0485484,12.478192 Z M29.2201213,40.1600102 L29.2201213,32.2542123 C29.2201213,30.062304 27.4328806,28.2963738 25.2201213,28.2963738 C23.0152974,28.2963738 21.2201213,30.070758 21.2201213,32.2542123 L21.2201213,40.1600102 L29.2201213,40.1600102 Z M41.7585677,37.49663 L44.1700841,43.3880481 L42.1598013,44.1145556 L39.7714143,38.2796436 L35.2201213,42.5561691 L35.2201213,24.3418283 L49.2201213,37.49663 L41.7585677,37.49663 Z" id="Combined-Shape" stroke="#FFFFFF" stroke-width="0.9" fill="#202020" fill-rule="nonzero" mask="url(#mask-2)"></path>
                </g>
            </g>
        </g>
    </g>
</svg>