<?xml version="1.0" encoding="UTF-8"?>
<svg width="42px" height="42px" viewBox="0 0 42 42" version="1.1" xmlns="http://www.w3.org/2000/svg" xmlns:xlink="http://www.w3.org/1999/xlink">
    <!-- Generator: Sketch 50 (54983) - http://www.bohemiancoding.com/sketch -->
    <title>Group 2 Copy 3</title>
    <desc>Created with Sketch.</desc>
    <defs></defs>
    <g id="Page-1" stroke="none" stroke-width="1" fill="none" fill-rule="evenodd">
        <g id="Article-Copy" transform="translate(-538.000000, -776.000000)" fill="#202020" fill-rule="nonzero" stroke="#FFFFFF" stroke-width="0.7">
            <g id="Group-2-Copy-3" transform="translate(539.000000, 777.000000)">
                <g id="noun_305253_cc">
                    <g id="Group">
                        <path d="M38.8132797,9.36136734 L32.4037081,9.36136734 C33.3532742,8.41501782 33.8280573,7.11378722 33.8280573,5.69426293 C33.8280573,2.50033328 30.9793588,0.0161657799 27.774573,0.252753161 C26.7063111,0.371046852 25.7567449,0.725927924 24.9258745,1.43569007 C24.9258745,1.43569007 24.9258745,1.43569007 24.8071787,1.43569007 C23.2641337,2.73692067 22.4332633,4.74791341 21.6023929,6.52231877 C21.1276098,7.70525567 20.4154352,9.24307365 19.9406521,9.24307365 C19.465869,9.24307365 18.7536944,7.70525567 18.2789113,6.52231877 C17.5667367,4.74791341 16.6171705,2.73692067 15.0741255,1.43569007 C15.0741255,1.43569007 15.0741255,1.43569007 15.0741255,1.43569007 C14.2432551,0.725927924 13.2936889,0.371046852 12.225427,0.252753161 C11.9880355,0.252753161 11.8693397,0.252753161 11.6319482,0.252753161 C8.66455388,0.252753161 6.17194269,2.73692067 6.17194269,5.69426293 C6.17194269,7.11378722 6.76542155,8.41501782 7.59629194,9.36136734 L1.18672032,9.36136734 C0.711937234,9.36136734 0.23715415,9.71624842 0.23715415,10.3077169 L0.23715415,17.4053383 C0.23715415,17.8785131 0.593241463,18.3516878 1.18672032,18.3516878 L4.27281036,18.3516878 L4.27281036,38.8164963 C4.27281036,39.2896711 4.62889767,39.7628458 5.22237653,39.7628458 L17.8041282,39.7628458 C17.8041282,39.7628458 17.8041282,39.7628458 17.8041282,39.7628458 C17.8041282,39.7628458 17.8041282,39.7628458 17.8041282,39.7628458 L22.1958718,39.7628458 C22.1958718,39.7628458 22.1958718,39.7628458 22.1958718,39.7628458 C22.1958718,39.7628458 22.1958718,39.7628458 22.1958718,39.7628458 L34.7776235,39.7628458 C35.2524066,39.7628458 35.7271896,39.4079648 35.7271896,38.8164963 L35.7271896,18.2333941 L38.8132797,18.2333941 C39.2880628,18.2333941 39.7628458,17.8785131 39.7628458,17.2870446 L39.7628458,10.1894232 C39.6441501,9.83454211 39.2880628,9.36136734 38.8132797,9.36136734 Z M21.3650014,18.2333941 L21.3650014,37.7518531 L18.7536944,37.7518531 L18.7536944,18.2333941 L21.3650014,18.2333941 Z M17.8041282,16.4589888 L17.8041282,11.1357727 L22.4332633,11.1357727 L22.4332633,16.4589888 L17.8041282,16.4589888 Z M23.3828295,7.3503746 C24.0950041,5.81255662 24.8071787,3.91985757 25.9941364,2.97350805 C25.9941364,2.97350805 25.9941364,2.97350805 25.9941364,2.97350805 C26.5876153,2.50033328 27.1810941,2.2637459 27.8932688,2.14545221 C28.0119645,2.14545221 28.1306603,2.14545221 28.2493561,2.14545221 C30.2671842,2.14545221 31.928925,3.80156388 31.928925,5.81255662 C31.928925,7.82354937 30.2671842,9.47966103 28.2493561,9.47966103 L22.3145675,9.47966103 C22.6706548,8.76989889 23.0267422,8.06013675 23.3828295,7.3503746 Z M11.7506439,2.02715852 C11.8693397,2.02715852 11.9880355,2.02715852 12.1067312,2.02715852 C12.8189059,2.14545221 13.4123847,2.38203959 14.0058636,2.85521436 C14.0058636,2.85521436 14.0058636,2.85521436 14.0058636,2.85521436 C15.1928213,3.91985757 16.0236917,5.69426293 16.7358663,7.3503746 C17.0919536,8.06013675 17.3293452,8.76989889 17.6854325,9.36136734 L11.7506439,9.36136734 C9.73281582,9.36136734 8.07107503,7.70525567 8.07107503,5.69426293 C8.07107503,3.68327019 9.73281582,2.02715852 11.7506439,2.02715852 Z M2.25498225,11.1357727 L16.0236917,11.1357727 L16.0236917,16.4589888 L2.25498225,16.4589888 L2.25498225,11.1357727 Z M6.17194269,18.2333941 L16.2610832,18.2333941 C16.379779,18.3516878 16.6171705,18.4699815 16.8545621,18.4699815 C16.8545621,18.4699815 16.9732578,18.4699815 16.9732578,18.4699815 L16.9732578,37.8701468 L6.17194269,37.8701468 L6.17194269,18.2333941 Z M33.9467531,37.7518531 L23.1454379,37.7518531 L23.1454379,18.4699815 C23.1454379,18.4699815 23.2641337,18.4699815 23.2641337,18.4699815 C23.5015252,18.4699815 23.7389168,18.3516878 23.8576126,18.2333941 L33.9467531,18.2333941 L33.9467531,37.7518531 Z M37.8637135,16.4589888 L24.0950041,16.4589888 L24.0950041,11.1357727 L37.8637135,11.1357727 L37.8637135,16.4589888 Z" id="Shape"></path>
                    </g>
                </g>
            </g>
        </g>
    </g>
</svg>