<?xml version="1.0" standalone="no"?>
<!DOCTYPE svg PUBLIC "-//W3C//DTD SVG 20010904//EN"
 "http://www.w3.org/TR/2001/REC-SVG-20010904/DTD/svg10.dtd">
<svg version="1.0" xmlns="http://www.w3.org/2000/svg"
 width="533.000000pt" height="461.000000pt" viewBox="0 0 533.000000 461.000000"
 preserveAspectRatio="xMidYMid meet">

<g transform="translate(0.000000,461.000000) scale(0.100000,-0.100000)"
fill="#000000" stroke="none">
<path d="M2391 3531 c-22 -41 -91 -246 -91 -270 0 -41 34 -88 74 -101 72 -23
146 27 146 99 0 38 -96 291 -111 291 -4 0 -13 -9 -18 -19z"/>
<path d="M2073 3329 c-117 -45 -212 -172 -247 -331 -4 -19 -13 -28 -26 -28
-46 0 -63 -77 -34 -160 19 -56 43 -83 66 -76 14 3 24 -7 42 -42 36 -72 98
-135 168 -173 58 -32 69 -34 153 -34 80 0 97 3 148 30 67 33 144 112 177 180
17 34 26 44 39 40 23 -7 46 19 65 75 29 83 12 160 -34 160 -15 0 -21 12 -30
55 -6 30 -12 55 -14 55 -1 0 -19 -9 -41 -20 -71 -36 -174 -22 -240 32 -62 52
-94 140 -76 217 l9 41 -37 -1 c-20 0 -60 -9 -88 -20z"/>
<path d="M1495 2465 c-51 -18 -110 -81 -124 -131 -8 -30 -4 -109 21 -364 35
-369 31 -355 126 -390 116 -44 425 -80 677 -80 252 0 561 36 677 80 94 35 92
28 121 334 15 148 24 273 21 278 -3 4 -57 8 -121 8 -181 0 -215 26 -223 175
l-5 90 -70 -135 -70 -135 -95 -10 c-52 -5 -100 -13 -106 -17 -6 -4 -28 -55
-49 -113 -20 -58 -39 -105 -42 -105 -2 0 -2 24 1 53 3 28 8 94 11 145 l7 93
-74 -3 -73 -3 2 -55 c1 -30 4 -98 7 -150 l5 -95 -37 110 c-20 61 -40 116 -44
121 -4 6 -42 17 -85 24 -43 7 -85 16 -93 21 -8 4 -40 65 -70 136 l-55 128
-100 2 c-67 2 -113 -2 -140 -12z"/>
<path d="M2105 2368 c-3 -7 -1 -26 3 -43 8 -29 10 -30 67 -30 57 0 59 1 67 30
13 49 5 55 -67 55 -43 0 -67 -4 -70 -12z"/>
<path d="M2083 570 c-49 -20 -60 -114 -18 -155 26 -27 49 -31 89 -15 22 8 26
16 26 50 0 38 -2 40 -29 40 -36 0 -51 -19 -22 -27 12 -3 21 -13 21 -24 0 -27
-55 -26 -70 0 -33 63 18 146 60 96 14 -17 40 -20 40 -6 0 12 -29 41 -40 41 -5
0 -14 2 -22 4 -7 3 -23 1 -35 -4z"/>
<path d="M3128 568 c-75 -25 -53 -178 26 -178 27 0 66 27 66 46 0 19 -26 18
-34 -1 -8 -22 -53 -19 -66 4 -24 46 -5 111 34 111 13 0 30 -10 39 -22 19 -29
34 -16 19 16 -12 27 -46 36 -84 24z"/>
<path d="M2220 479 c0 -68 3 -90 13 -87 6 3 13 19 15 36 4 44 33 42 55 -3 9
-19 23 -35 32 -35 19 0 19 2 -5 43 -18 30 -19 36 -5 47 18 15 20 61 3 78 -7 7
-34 12 -60 12 l-48 0 0 -91z m85 41 c0 -20 -6 -26 -27 -28 -25 -3 -28 0 -28
28 0 28 3 31 28 28 21 -2 27 -8 27 -28z"/>
<path d="M2375 483 c1 -69 5 -88 16 -88 11 0 15 20 17 88 3 79 1 87 -16 87
-16 0 -18 -9 -17 -87z"/>
<path d="M2442 483 l3 -88 58 -3 c46 -2 57 0 57 13 0 11 -10 15 -39 15 -33 0
-39 4 -43 24 -5 22 -1 25 30 28 49 4 53 26 5 30 -30 2 -38 7 -38 23 0 16 8 21
43 23 64 5 50 22 -18 22 l-61 0 3 -87z"/>
<path d="M2601 488 c33 -90 44 -107 58 -92 5 5 23 46 40 92 27 74 28 82 12 82
-13 0 -23 -16 -36 -60 -10 -33 -21 -60 -25 -60 -4 0 -15 27 -25 60 -13 44 -23
60 -36 60 -16 0 -15 -8 12 -82z"/>
<path d="M2761 490 c-17 -45 -31 -86 -31 -91 0 -19 21 -8 32 16 8 19 19 25 43
25 24 0 35 -6 43 -25 12 -26 32 -34 32 -12 0 29 -59 162 -73 165 -10 2 -24
-21 -46 -78z m63 -7 c6 -20 4 -23 -19 -23 -22 0 -26 3 -20 18 4 9 10 25 13 36
5 20 14 11 26 -31z"/>
<path d="M2910 479 c0 -68 3 -90 13 -87 7 3 14 29 17 63 l5 59 38 -62 c55 -88
67 -83 67 28 0 73 -3 90 -15 90 -12 0 -15 -14 -15 -62 l0 -63 -40 63 c-57 89
-70 84 -70 -29z"/>
<path d="M3252 483 l3 -88 54 0 c35 0 56 5 59 13 2 8 -10 12 -42 12 -42 0 -46
2 -46 24 0 21 5 25 38 28 20 2 37 8 37 13 0 6 -17 11 -37 13 -33 3 -38 7 -38
28 0 22 4 24 45 24 25 0 45 5 45 10 0 6 -27 10 -60 10 l-61 0 3 -87z"/>
</g>
</svg>
