<?xml version="1.0" encoding="UTF-8" standalone="no"?>
<svg width="50px" height="50px" viewBox="0 0 50 50" version="1.1" xmlns="http://www.w3.org/2000/svg" xmlns:xlink="http://www.w3.org/1999/xlink">
    <!-- Generator: Sketch 47.1 (45422) - http://www.bohemiancoding.com/sketch -->
    <title>ic_in_store</title>
    <desc>Created with Sketch.</desc>
    <defs></defs>
    <g id="Symbols" stroke="none" stroke-width="1" fill="none" fill-rule="evenodd">
        <g id="ic_in_store">
            <rect id="Rectangle-2" x="0" y="0" width="50" height="50"></rect>
            <g id="ic-storelocator" transform="translate(8.000000, 2.000000)" stroke="#000000" stroke-width="1.1">
                <path d="M34.0273003,17.3846729 C34.0273003,32.859862 17.0136501,45.2400135 17.0136501,45.2400135 C17.0136501,45.2400135 0,32.859862 0,17.3846729 C0,7.98349538 8.02580278,0.361964677 17.0136501,0.361964677 C26.0014975,0.361964677 34.0273003,7.98349538 34.0273003,17.3846729 L34.0273003,17.3846729 Z" id="Stroke-5080"></path>
                <path d="M27.0671707,17.3846729 C27.0671707,22.9402657 22.5662869,27.4435458 17.0136501,27.4435458 C11.4610134,27.4435458 6.96012961,22.9402657 6.96012961,17.3846729 C6.96012961,11.8290798 11.4610134,7.32579983 17.0136501,7.32579983 C22.5662869,7.32579983 27.0671707,11.8290798 27.0671707,17.3846729 L27.0671707,17.3846729 Z" id="Stroke-5081"></path>
            </g>
        </g>
    </g>
</svg>