<?xml version="1.0" encoding="UTF-8"?>
<svg width="40px" height="44px" viewBox="0 0 40 44" version="1.1" xmlns="http://www.w3.org/2000/svg" xmlns:xlink="http://www.w3.org/1999/xlink">
    <!-- Generator: Sketch 51.1 (57501) - http://www.bohemiancoding.com/sketch -->
    <title>LMR</title>
    <desc>Created with Sketch.</desc>
    <defs>
        <polygon id="path-1" points="8.43292308 7.81337429 8.43292308 0.0979457143 0.0492307692 0.0979457143 0.0492307692 7.81337429"></polygon>
        <polygon id="path-3" points="17.6636923 0.08127 0.107076923 0.08127 0.107076923 16.0981557 17.6636923 16.0981557"></polygon>
    </defs>
    <g id="Page-1" stroke="none" stroke-width="1" fill="none" fill-rule="evenodd">
        <g id="LMR" transform="translate(1.000000, 0.000000)">
            <g id="Gift" transform="translate(20.307692, 0.500000)">
                <g id="Group-3" transform="translate(9.230769, 5.957437)">
                    <g id="Fill-1-Clipped">
                        <mask id="mask-2" fill="white">
                            <use xlink:href="#path-1"></use>
                        </mask>
                        <g id="path-1"></g>
                        <path d="M8.43323077,7.81337429 L8.43323077,2.34438857 C8.43323077,1.17171714 7.44615385,0.0979457143 6.16430769,0.0979457143 L0.0492307692,0.0979457143 L0.0492307692,7.71570286 L8.43323077,7.71570286 L8.43323077,7.81337429 Z" id="Fill-1" fill="#242428" fill-rule="nonzero" mask="url(#mask-2)"></path>
                    </g>
                </g>
                <g id="Group-9" transform="translate(0.000000, 6.071723)">
                    <g id="Fill-7-Clipped">
                        <mask id="mask-4" fill="white">
                            <use xlink:href="#path-3"></use>
                        </mask>
                        <g id="path-3"></g>
                        <polygon id="Fill-7" fill="#242428" fill-rule="nonzero" mask="url(#mask-4)" points="17.664 16.0981557 17.664 8.48039857 9.28 8.48039857 9.28 15.9028129 8.49107692 15.9028129 8.49107692 8.48039857 0.107076923 8.48039857 0.107076923 7.69902714 8.49107692 7.69902714 8.49107692 0.08127 0.107076923 0.08127 0.107076923 16.0981557"></polygon>
                    </g>
                </g>
                <path d="M8.98375385,5.07848429 C8.98375385,5.07848429 9.67421538,1.46525571 11.4502154,0.000184285714 C11.4502154,0.000184285714 13.5209846,0.39087 14.5080615,2.73498429 C14.6065231,2.83204143 12.0416,5.37149857 8.98375385,5.07848429" id="Fill-10" fill="#242428" fill-rule="nonzero"></path>
                <path d="M8.78658462,5.07848429 C8.78658462,5.07848429 8.09612308,1.46525571 6.32073846,0.000184285714 C6.32073846,0.000184285714 4.24935385,0.39087 3.26289231,2.73498429 C3.16443077,2.83204143 5.8272,5.37149857 8.78658462,5.07848429" id="Fill-12" fill="#242428" fill-rule="nonzero"></path>
            </g>
            <path d="M37,26.4197802 L16.5961538,26.4197802 L16.5961538,5.07142857 C16.5961538,4.65721501 16.2603674,4.32142857 15.8461538,4.32142857 L1,4.32142857 C0.58578644,4.32142857 0.25,4.65721501 0.25,5.07142857 L0.25,42 C0.25,42.3026214 0.430666029,42.5718591 0.72189419,42.6975205 C0.819062,42.7424084 0.92499683,42.7659341 1.03571429,42.7659341 L37,42.7659341 C37.4142136,42.7659341 37.75,42.4301476 37.75,42.0159341 L37.75,27.1697802 C37.75,26.7555667 37.4142136,26.4197802 37,26.4197802 Z" id="Combined-Shape" stroke="#242428" stroke-width="1.5"></path>
        </g>
    </g>
</svg>