<?xml version="1.0" encoding="UTF-8" standalone="no"?>
<svg width="50px" height="50px" viewBox="0 0 50 50" version="1.1" xmlns="http://www.w3.org/2000/svg" xmlns:xlink="http://www.w3.org/1999/xlink">
    <!-- Generator: Sketch 47.1 (45422) - http://www.bohemiancoding.com/sketch -->
    <title>ic_profile</title>
    <desc>Created with Sketch.</desc>
    <defs></defs>
    <g id="Symbols" stroke="none" stroke-width="1" fill="none" fill-rule="evenodd" stroke-linecap="round" stroke-linejoin="round">
        <g id="ic_profile" stroke="#000000" stroke-width="1.15384615">
            <g transform="translate(1.923077, 6.538462)">
                <path d="M37.0258977,36.9230769 L46.1538462,36.9230769 C46.1538462,33.1851822 43.5588462,29.6051012 40.2715385,28.6989449 L34.3269231,27.0597183 L33.6496154,24.0701662 C35.3053846,22.4322123 36.1696154,19.6488362 36.3461538,17.1963598 C37.0730769,17.1963598 37.41,17.3554462 37.5,16.5600141 L38.0769231,13.3782855 C38.1830769,12.4352211 37.7815385,11.4807026 36.9230769,11.4692483 L36.9230769,7.01482834 L37.6442308,6.2193962 C38.5776923,5.12488157 39.0103846,4.13218225 38.0769231,2.56040834 C37.1388462,0.979725585 35.3607692,0.015025482 33.0726923,0.015025482 C31.8634615,0.015025482 29.6180769,-0.233149347 27.6923077,1.28771691 C26.2114644,1.30393062 25.035795,1.49968439 24.1059229,1.82931669" id="Stroke-12"></path>
                <path d="M27.5792308,29.7553846 L21.6346154,28.2692308 L21.3461538,25.9615385 C25.5830769,25.3684615 27.6923077,24.2307692 27.6923077,24.2307692 C27.6923077,24.2307692 24.2307692,21.7788462 24.2307692,13.8461538 C24.2307692,5.91346154 21.9703846,4.90384615 20.7692308,4.90384615 L20.0480769,4.90384615 C18.9957692,3.85153846 18.4257692,3.46153846 16.4423077,3.46153846 C14.4588462,3.46153846 9.23076923,5.91346154 9.23076923,13.8461538 C9.23076923,21.7788462 5.76923077,24.2307692 5.76923077,24.2307692 C5.76923077,24.2307692 7.85076923,25.3696154 12.1153846,25.9615385 L11.5384615,28.2692308 L5.59384615,29.7553846 C2.30538462,30.5769231 0,33.5307692 0,36.9196154 L0,36.9230769 L33.1730769,36.9230769 L33.4615385,36.9230769 C33.4615385,33.5342308 30.8665385,30.5769231 27.5792308,29.7553846 L27.5792308,29.7553846 Z" id="Stroke-14"></path>
            </g>
        </g>
    </g>
</svg>