<?xml version="1.0" encoding="UTF-8" standalone="no"?>
<svg width="50px" height="50px" viewBox="0 0 50 50" version="1.1" xmlns="http://www.w3.org/2000/svg" xmlns:xlink="http://www.w3.org/1999/xlink">
    <!-- Generator: Sketch 47.1 (45422) - http://www.bohemiancoding.com/sketch -->
    <title>ic_otherinformtaion</title>
    <desc>Created with Sketch.</desc>
    <defs></defs>
    <g id="Symbols" stroke="none" stroke-width="1" fill="none" fill-rule="evenodd">
        <g id="ic_otherinformtaion">
            <rect id="Rectangle-2" x="0" y="0" width="50" height="50"></rect>
            <g transform="translate(2.269091, 2.269091)">
                <path d="M45.3818182,22.6909091 C45.3818182,35.2235107 35.2204165,45.3818182 22.6909091,45.3818182 C10.157276,45.3818182 0,35.2235107 0,22.6909091 C0,10.1583074 10.157276,0 22.6909091,0 C35.2204165,0 45.3818182,10.1583074 45.3818182,22.6909091 L45.3818182,22.6909091 Z" id="Stroke-3994" stroke="#231F20" stroke-width="1.13454545" stroke-linecap="round" stroke-linejoin="round"></path>
                <path d="M22.6909091,11.3454545 C21.4372364,11.3454545 20.4218182,12.3620073 20.4218182,13.6145455 C20.4218182,14.8682182 21.4372364,15.8836364 22.6909091,15.8836364 C23.9423127,15.8836364 24.96,14.8682182 24.96,13.6145455 C24.96,12.3620073 23.9423127,11.3454545 22.6909091,11.3454545" id="Fill-3997" fill="#231F20"></path>
                <path d="M22.6909091,19.8545455 L22.6909091,33.4690909" id="Line" stroke="#000000" stroke-width="2.26909091" stroke-linecap="round"></path>
            </g>
        </g>
    </g>
</svg>