<?xml version="1.0" encoding="UTF-8" standalone="no"?>
<svg width="50px" height="50px" viewBox="0 0 50 50" version="1.1" xmlns="http://www.w3.org/2000/svg" xmlns:xlink="http://www.w3.org/1999/xlink">
    <!-- Generator: Sketch 47.1 (45422) - http://www.bohemiancoding.com/sketch -->
    <title>ic_paymentoptions</title>
    <desc>Created with Sketch.</desc>
    <defs></defs>
    <g id="Symbols" stroke="none" stroke-width="1" fill="none" fill-rule="evenodd">
        <g id="ic_paymentoptions">
            <rect id="Rectangle-2" x="0" y="0" width="50" height="50"></rect>
            <g transform="translate(2.000000, 4.000000)" stroke-linecap="round" id="Group" stroke="#231F20" stroke-width="1.28">
                <g transform="translate(7.076923, 0.000000)">
                    <path d="M35.5384615,24.1938712 L35.5384615,28.3652283 C35.5384615,31.5905216 32.8874615,34.2051282 29.6153846,34.2051282 L20.2240585,34.2051282 M0,15.1720753 L0,9.17698562 C0,7.33491432 1.51546154,5.83989994 3.38461538,5.83989994 L29.6153846,5.83989994 C32.8874615,5.83989994 35.5384615,8.45450657 35.5384615,11.6797999 L35.5384615,15.851157" id="Stroke-1590"></path>
                    <path d="M38.9230769,21.0653533 C38.9230769,22.7939637 37.6123846,24.1938712 35.9945385,24.1938712 L29.1601538,24.1938712 C27.5431538,24.1938712 26.2307692,22.7939637 26.2307692,21.0653533 L26.2307692,18.9796748 C26.2307692,17.2510644 27.5431538,15.851157 29.1601538,15.851157 L35.9945385,15.851157 C37.6123846,15.851157 38.9230769,17.2510644 38.9230769,18.9796748 L38.9230769,21.0653533 L38.9230769,21.0653533 Z" id="Stroke-1591"></path>
                    <path d="M31.3076923,20.0225141 C31.3076923,20.4838662 30.9286154,20.8567855 30.4615385,20.8567855 C29.9936154,20.8567855 29.6153846,20.4838662 29.6153846,20.0225141 C29.6153846,19.561162 29.9936154,19.1882427 30.4615385,19.1882427 C30.9286154,19.1882427 31.3076923,19.561162 31.3076923,20.0225141 L31.3076923,20.0225141 Z" id="Stroke-1592"></path>
                    <polyline id="Stroke-1593" points="30.2587154 5.8745222 28.7694846 -0.000417135712 6.76948462 5.8394828"></polyline>
                    <path d="M3.38461538,8.25641026 L5.07692308,8.25641026" id="Stroke-1594"></path>
                    <path d="M8.46153846,8.25641026 L10.1538462,8.25641026" id="Stroke-1595"></path>
                    <path d="M13.5384615,8.25641026 L15.2307692,8.25641026" id="Stroke-1596"></path>
                    <path d="M18.6153846,8.25641026 L20.3076923,8.25641026" id="Stroke-1597"></path>
                    <path d="M23.6923077,8.25641026 L25.3846154,8.25641026" id="Stroke-1598"></path>
                    <path d="M28.7692308,8.25641026 L30.4615385,8.25641026" id="Stroke-1599"></path>
                    <path d="M3.38461538,30.6666667 L5.07692308,30.6666667" id="Stroke-1600"></path>
                    <path d="M8.46153846,30.6666667 L10.1538462,30.6666667" id="Stroke-1601"></path>
                    <path d="M13.5384615,30.6666667 L15.2307692,30.6666667" id="Stroke-1602"></path>
                    <path d="M18.6153846,30.6666667 L20.3076923,30.6666667" id="Stroke-1603"></path>
                    <path d="M23.6923077,30.6666667 L25.3846154,30.6666667" id="Stroke-1604"></path>
                    <path d="M28.7692308,30.6666667 L30.4615385,30.6666667" id="Stroke-1605"></path>
                </g>
                <g transform="translate(0.000000, 15.333333)" stroke-linejoin="round">
                    <path d="M17.6923077,2.35897436 C17.6923077,3.66230769 13.7321795,4.71794872 8.84615385,4.71794872 C3.96130769,4.71794872 0,3.66230769 0,2.35897436 C0,1.05623077 3.96130769,0 8.84615385,0 C13.7321795,0 17.6923077,1.05623077 17.6923077,2.35897436 L17.6923077,2.35897436 Z" id="Stroke-4532"></path>
                    <path d="M17.6923077,2.35897436 L17.6923077,5.8974359 C17.6923077,7.20076923 13.7321795,8.25641026 8.84615385,8.25641026 C3.96130769,8.25641026 0,7.20076923 0,5.8974359 L0,2.35897436" id="Stroke-4533"></path>
                    <path d="M17.6923077,5.8974359 L17.6923077,9.43589744 C17.6923077,10.7392308 13.7321795,11.7948718 8.84615385,11.7948718 C3.96130769,11.7948718 0,10.7392308 0,9.43589744 L0,5.8974359" id="Stroke-4534"></path>
                    <path d="M17.6923077,9.43589744 L17.6923077,12.974359 C17.6923077,14.2776923 13.7321795,15.3333333 8.84615385,15.3333333 C3.96130769,15.3333333 0,14.2776923 0,12.974359 L0,9.43589744" id="Stroke-4538"></path>
                    <path d="M0,12.974359 L0,16.5128205 C0,17.8161538 3.96130769,18.8717949 8.84615385,18.8717949 L9.43589744,18.8717949" id="Stroke-4539"></path>
                    <path d="M0,16.5128205 L0,20.0512821 C0,21.3546154 3.96130769,22.4102564 8.84615385,22.4102564 L9.43589744,22.4102564" id="Stroke-4540"></path>
                    <path d="M17.6923077,12.974359 L17.6923077,15.3333333" id="Stroke-4541"></path>
                    <path d="M27.1282051,17.6923077 C27.1282051,18.995641 23.1680769,20.0512821 18.2820513,20.0512821 C13.3972051,20.0512821 9.43589744,18.995641 9.43589744,17.6923077 C9.43589744,16.3895641 13.3972051,15.3333333 18.2820513,15.3333333 C23.1680769,15.3333333 27.1282051,16.3895641 27.1282051,17.6923077 L27.1282051,17.6923077 Z" id="Stroke-4535"></path>
                    <path d="M27.1282051,17.6923077 L27.1282051,21.2307692 C27.1282051,22.5341026 23.1680769,23.5897436 18.2820513,23.5897436 C13.3972051,23.5897436 9.43589744,22.5341026 9.43589744,21.2307692 L9.43589744,17.6923077" id="Stroke-4536"></path>
                    <path d="M27.1282051,21.2307692 L27.1282051,24.7692308 C27.1282051,26.0725641 23.1680769,27.1282051 18.2820513,27.1282051 C13.3972051,27.1282051 9.43589744,26.0725641 9.43589744,24.7692308 L9.43589744,21.2307692" id="Stroke-4537"></path>
                </g>
            </g>
        </g>
    </g>
</svg>