<?xml version="1.0" encoding="UTF-8" standalone="no"?>
<svg width="50px" height="50px" viewBox="0 0 50 50" version="1.1" xmlns="http://www.w3.org/2000/svg" xmlns:xlink="http://www.w3.org/1999/xlink">
    <!-- Generator: Sketch 47.1 (45422) - http://www.bohemiancoding.com/sketch -->
    <title>ic_returnsprocess</title>
    <desc>Created with Sketch.</desc>
    <defs></defs>
    <g id="Symbols" stroke="none" stroke-width="1" fill="none" fill-rule="evenodd">
        <g id="ic_returnsprocess">
            <rect id="Rectangle-2" x="0" y="0" width="50" height="50"></rect>
            <g transform="translate(2.000000, 4.000000)" stroke="#000000" stroke-width="1.248">
                <polygon id="Stroke-4654" stroke-linecap="round" stroke-linejoin="round" points="19.9622642 17.3584906 0 8.67924528 0 31.245283 19.9622642 39.9245283"></polygon>
                <polyline id="Stroke-4655" stroke-linecap="round" stroke-linejoin="round" points="24.9528302 37.754717 19.9622642 39.9245283 19.9622642 17.3584906 39.9245283 8.67924528 39.9245283 19.0943396"></polyline>
                <g id="Group-2" transform="translate(26.450000, 21.850000)" stroke-linecap="round">
                    <path d="M11.9879956,18.5381728 C7.09865124,19.9629251 1.97876445,17.1539959 0.55493426,12.2646516 C-0.869818099,7.37530722 1.94003332,2.25726477 6.83029983,0.831590241 C11.7177998,-0.593162118 16.8367644,2.2166893 18.2615168,7.10603364" id="Stroke-5337"></path>
                    <polyline id="Stroke-5338" stroke-linejoin="round" points="19.5490503 2.04986878 18.2617012 7.10520368 13.2082107 5.8187768"></polyline>
                </g>
                <polyline id="Stroke-4656" stroke-linecap="round" stroke-linejoin="round" points="0 8.67924528 19.9622642 0 39.9245283 8.67924528"></polyline>
                <path d="M11.5722981,3.61664151 L29.6989019,13.0735472" id="Stroke-4657" stroke-linejoin="round"></path>
                <polygon id="Stroke-4658" stroke-linecap="round" stroke-linejoin="round" points="14.754717 20.8301887 5.20754717 16.490566 5.20754717 25.1698113 14.754717 29.509434"></polygon>
            </g>
        </g>
    </g>
</svg>