<svg width="24" height="24" viewBox="0 0 24 24" fill="none" xmlns="http://www.w3.org/2000/svg">
<g filter="url(#filter0_b_5134_79170)">
<path d="M3.5 5.5C3.5 4.39543 4.39543 3.5 5.5 3.5H11.6793C11.8918 3.5 12.1028 3.53384 12.3046 3.60024L14.0539 4.17599C14.0617 4.17852 14.0692 4.18107 14.0769 4.18377C14.1888 4.2233 15.1273 4.56364 17 5.5C19 6.5 19.5 7 20 7.5C20.2583 7.75831 20.3832 8.15008 20.4435 8.46846C20.5089 8.81307 20.4078 9.15994 20.2325 9.46378L14.6427 19.1567C14.2856 19.776 13.625 20.1575 12.9101 20.1575H5.5C4.39543 20.1575 3.5 19.2621 3.5 18.1575V5.5Z" fill="white" fill-opacity="0.7"/>
</g>
<rect x="3.5" y="3.5" width="10.5655" height="16.6575" rx="2" fill="white"/>
<path fill-rule="evenodd" clip-rule="evenodd" d="M3 5.5C3 4.11929 4.11929 3 5.5 3H12.0655C13.4462 3 14.5655 4.11929 14.5655 5.5V16.4011L16.9023 7.23478C17.0849 6.51846 16.7219 5.76293 16.0469 5.4546L15.1281 5.03487C14.876 4.9197 14.7595 4.62134 14.8678 4.36848C14.9761 4.11562 15.2684 4.004 15.5205 4.11918L16.4393 4.53891C17.5642 5.05279 18.1692 6.31199 17.8648 7.50586L15.35 17.3706L19.8234 9.38372C20.1555 8.79065 20.0569 8.03115 19.5831 7.5331L18.5263 6.42235C18.3338 6.2201 18.3325 5.89771 18.5232 5.70227C18.7139 5.50683 19.0246 5.51236 19.217 5.71461L20.2738 6.82535C21.0635 7.65544 21.2279 8.92126 20.6743 9.90972L15.0598 19.934C14.5755 20.7987 13.6195 21.1578 12.7477 20.9319C12.4661 20.9541 12.1749 20.9274 11.8849 20.8458L11.2595 20.6696C11.2468 20.6661 11.2344 20.662 11.2222 20.6575H5.5C4.11929 20.6575 3 19.5383 3 18.1575V5.5ZM5.5 4C4.67157 4 4 4.67157 4 5.5V18.1575C4 18.986 4.67157 19.6575 5.5 19.6575H12.0655C12.8939 19.6575 13.5655 18.986 13.5655 18.1575V5.5C13.5655 4.67157 12.8939 4 12.0655 4H5.5Z" fill="#4A4A4A"/>
<defs>
<filter id="filter0_b_5134_79170" x="0.5" y="0.5" width="22.9635" height="22.6575" filterUnits="userSpaceOnUse" color-interpolation-filters="sRGB">
<feFlood flood-opacity="0" result="BackgroundImageFix"/>
<feGaussianBlur in="BackgroundImage" stdDeviation="1.5"/>
<feComposite in2="SourceAlpha" operator="in" result="effect1_backgroundBlur_5134_79170"/>
<feBlend mode="normal" in="SourceGraphic" in2="effect1_backgroundBlur_5134_79170" result="shape"/>
</filter>
</defs>
</svg>
