<?xml version="1.0" encoding="UTF-8" standalone="no"?>
<svg width="50px" height="50px" viewBox="0 0 50 50" version="1.1" xmlns="http://www.w3.org/2000/svg" xmlns:xlink="http://www.w3.org/1999/xlink">
    <!-- Generator: Sketch 47.1 (45422) - http://www.bohemiancoding.com/sketch -->
    <title>ic_trackinganddelivery</title>
    <desc>Created with Sketch.</desc>
    <defs></defs>
    <g id="Symbols" stroke="none" stroke-width="1" fill="none" fill-rule="evenodd">
        <g id="ic_trackinganddelivery">
            <rect id="Rectangle-2" x="0" y="0" width="50" height="50"></rect>
            <g transform="translate(2.000000, 5.000000)" stroke="#231F20" stroke-width="1.248" stroke-linejoin="round">
                <polyline id="Stroke-9454" points="32 22 41 22 46 30 46 33 46 37 41 37"></polyline>
                <polyline id="Stroke-9455" points="21 37 32 37 32 16 21 16"></polyline>
                <polyline id="Stroke-9456" points="10.0103 20.9951 10.0003 37.0001 15.0003 37.0001"></polyline>
                <path d="M40.9858,36.9824 C40.9858,38.6374 39.6438,39.9794 37.9878,39.9794 C36.3318,39.9794 34.9908,38.6374 34.9908,36.9824 C34.9908,35.3264 36.3318,33.9844 37.9878,33.9844 C39.6438,33.9844 40.9858,35.3264 40.9858,36.9824 L40.9858,36.9824 Z" id="Stroke-9457"></path>
                <path d="M21.0016,36.9824 C21.0016,38.6374 19.6596,39.9794 18.0036,39.9794 C16.3486,39.9794 15.0066,38.6374 15.0066,36.9824 C15.0066,35.3264 16.3486,33.9844 18.0036,33.9844 C19.6596,33.9844 21.0016,35.3264 21.0016,36.9824 L21.0016,36.9824 Z" id="Stroke-9458"></path>
                <path d="M20.2390342,9.55515675 C20.2390342,14.7528777 15.9022984,19.0906738 10.7035171,19.0906738 C5.50473578,19.0906738 1.168,14.7528777 1.168,9.55515675 C1.168,4.35637545 5.50473578,0.0207 10.7035171,0.0207 C15.9022984,0.0207 20.2390342,4.35637545 20.2390342,9.55515675 L20.2390342,9.55515675 Z" id="Stroke-9459"></path>
                <polyline id="Stroke-9460" stroke-linecap="round" points="9.64403874 4.24832817 9.64403874 10.6060464 13.8821641 10.6060464"></polyline>
                <path d="M0,28.75 L6.014,28.75575" id="Stroke-9461" stroke-linecap="round"></path>
                <path d="M3,31.05 L6,31.05" id="Stroke-9462" stroke-linecap="round"></path>
                <path d="M5,33.35 L6,33.35" id="Stroke-9463" stroke-linecap="round"></path>
                <path d="M32,28.75 L45,28.75" id="Stroke-9464"></path>
                <path d="M32,36.8 L35,36.8" id="Stroke-9465"></path>
            </g>
        </g>
    </g>
</svg>